Results
version=1
nRows=14
nColumns=24
inDegrees=yes
endheader
time	pelvis_tilt	pelvis_list	pelvis_rotation	pelvis_tx	pelvis_ty	pelvis_tz	hip_flexion_r	hip_adduction_r	hip_rotation_r	knee_angle_r	ankle_angle_r	subtalar_angle_r	mtp_angle_r	hip_flexion_l	hip_adduction_l	hip_rotation_l	knee_angle_l	ankle_angle_l	subtalar_angle_l	mtp_angle_l	lumbar_extension	lumbar_bending	lumbar_rotation
      0.44800000	     -7.69749302	     -0.28475048	      5.84818582	     -0.76133742	      0.88797630	      0.29885326	     35.21912547	      1.27266107	     -7.45449683	    -16.71242514	      0.77000052	     -0.95830238	      5.30560516	     -7.32954007	      1.79098439	      1.18856354	    -10.94973463	     16.75648551	      2.80207543	      7.67705103	     -1.65760525	     -2.68491808	     -8.47788547
      0.45216667	     -7.74318121	     -0.29411944	      5.92032856	     -0.75521549	      0.88685857	      0.29890970	     35.13256134	      1.39251830	     -7.22983058	    -16.42390879	      0.64192121	     -1.27348746	      5.24904915	     -7.28333631	      1.70707102	      1.14089736	    -11.83056059	     16.88603813	      3.06843845	      7.77043943	     -1.54627681	     -2.64820379	     -8.47377943
      0.45633333	     -7.77001928	     -0.31526082	      5.97741284	     -0.74907331	      0.88580420	      0.29899915	     35.03930423	      1.53016299	     -7.01186666	    -16.26154104	      0.49993842	     -1.62773584	      5.19994656	     -7.21036313	      1.59802399	      0.99560189	    -12.79901264	     16.99605385	      3.45081022	      7.93598519	     -1.47081071	     -2.57697311	     -8.44999326
      0.46050000	     -7.81829144	     -0.33491760	      6.04094090	     -0.74292655	      0.88476653	      0.29906440	     34.97567150	      1.65448846	     -6.80548658	    -16.20740827	      0.33316154	     -1.99903346	      5.17488037	     -7.08877557	      1.50042587	      0.94787225	    -13.82324334	     17.08311488	      3.72019464	      8.09830540	     -1.35315299	     -2.48588893	     -8.40057143
      0.46466667	     -7.81180749	     -0.40725691	      6.08001624	     -0.73671535	      0.88384716	      0.29921013	     34.85621956	      1.84623463	     -6.64024422	    -16.23979494	      0.10602856	     -2.38005672	      5.14293331	     -6.96315507	      1.30892136	      0.66740842	    -14.96999412	     17.16857505	      4.27346791	      8.93780620	     -1.31937650	     -2.36082442	     -8.33128890
      0.46883333	     -7.84456483	     -0.45668715	      6.12496604	     -0.73050262	      0.88293227	      0.29937883	     34.78236529	      2.01970291	     -6.39765097	    -16.36825930	     -0.10784542	     -2.99414823	      5.15291246	     -6.78659878	      1.15480506	      0.52913139	    -16.12502254	     17.09215094	      4.63720949	      9.42354858	     -1.21565988	     -2.26154909	     -8.25703076
      0.47300000	     -7.91144755	     -0.48874646	      6.14533025	     -0.72430674	      0.88200764	      0.29956874	     34.77289022	      2.17269773	     -6.17240616	    -16.62125815	     -0.38668248	     -3.50169395	      5.17409602	     -6.53129368	      1.02579765	      0.36743943	    -17.36441471	     16.96815520	      4.94057752	      9.80219276	     -1.06866183	     -2.19884930	     -8.16418855
      0.47716667	     -7.95917471	     -0.56804745	      6.18703535	     -0.71806695	      0.88115513	      0.29972451	     34.76041708	      2.34570896	     -6.06486716	    -16.98620750	     -0.57213529	     -3.89078088	      5.58188610	     -6.23427231	      0.82189835	      0.15124608	    -18.70460773	     16.75477657	      5.36446219	     13.94516298	     -0.93587932	     -2.02713512	     -8.05816800
      0.48133333	     -7.97855564	     -0.63187857	      6.19391886	     -0.71184323	      0.88040631	      0.29997844	     34.71444835	      2.54381269	     -5.82157379	    -17.39112399	     -0.87578492	     -4.59498147	      5.58460945	     -5.95721305	      0.64544302	      0.00979461	    -20.07305302	     16.53988235	      5.60851360	     14.11126237	     -0.85695223	     -1.90259600	     -7.90897060
      0.48550000	     -8.02418479	     -0.69891559	      6.19524103	     -0.70561924	      0.87965100	      0.30023958	     34.72884620	      2.72953886	     -5.63802760	    -17.91868917	     -1.09260534	     -5.12383798	      5.60423311	     -5.59585419	      0.45404962	     -0.19560887	    -21.53766875	     16.26953549	      5.97240226	     14.36409114	     -0.73856484	     -1.77042225	     -7.75736703
      0.48966667	     -8.06178446	     -0.79518339	      6.21787219	     -0.69938628	      0.87897870	      0.30048848	     34.72946747	      2.92723128	     -5.50477025	    -18.47983605	     -1.25905265	     -5.61671490	      5.95270059	     -5.18128806	      0.21695830	     -0.39185850	    -23.09637370	     15.85757232	      6.28818078	     17.81826887	     -0.61669792	     -1.60707994	     -7.62922978
      0.49383333	     -8.12675629	     -0.84155483	      6.19779247	     -0.69317971	      0.87830453	      0.30077970	     34.80082509	      3.09059921	     -5.30265072	    -19.17612749	     -1.29305948	     -6.06804333	      5.95259548	     -4.72776165	      0.05856535	     -0.52362347	    -24.66504018	     15.33029740	      6.46383095	     17.87328006	     -0.46822884	     -1.48528394	     -7.45126258
      0.49800000	     -8.13441799	     -0.94114094	      6.16754802	     -0.68697633	      0.87773916	      0.30114245	     34.81047305	      3.31699042	     -5.13864786	    -19.88274947	     -1.41154685	     -6.57514935	      5.95616251	     -4.25868505	     -0.20286896	     -0.80672535	    -26.37740848	     14.88742567	      6.86359794	     18.07983993	     -0.39836918	     -1.31326063	     -7.21543652
      0.50216667	     -8.15491369	     -1.03557395	      6.13908160	     -0.68078528	      0.87721131	      0.30150204	     34.84358517	      3.53048253	     -4.98097227	    -20.64401978	     -1.38959490	     -7.00152983	      5.96433072	     -3.73878057	     -0.45360121	     -1.02770784	    -28.13648447	     14.28581176	      7.14870706	     18.37535815	     -0.30643685	     -1.13872037	     -7.00717311
